<svg width="800" height="600" viewBox="0 0 800 600" xmlns="http://www.w3.org/2000/svg">
  <defs>
    <linearGradient id="parchmentGradient" x1="0%" y1="0%" x2="0%" y2="100%">
      <stop offset="0%" style="stop-color:#f5f1e8;stop-opacity:1" />
      <stop offset="50%" style="stop-color:#e8ddd4;stop-opacity:1" />
      <stop offset="100%" style="stop-color:#2c2c2c;stop-opacity:1" />
    </linearGradient>
    <pattern id="paperTexture" patternUnits="userSpaceOnUse" width="4" height="4">
      <rect width="4" height="4" fill="#f5f1e8"/>
      <circle cx="1" cy="1" r="0.3" fill="#e8ddd4" opacity="0.3"/>
      <circle cx="3" cy="3" r="0.2" fill="#d4c4b0" opacity="0.2"/>
    </pattern>
  </defs>
  
  <!-- Background with gradient -->
  <rect width="800" height="600" fill="url(#parchmentGradient)"/>
  
  <!-- Paper texture overlay -->
  <rect width="800" height="600" fill="url(#paperTexture)" opacity="0.4"/>
  
  <!-- Quill pen illustration -->
  <g opacity="0.15" transform="translate(600, 300)">
    <!-- Feather -->
    <path d="M-80,-20 Q-60,-40 -40,-20 Q-60,0 -80,-20 Z" fill="#8b7355" stroke="#6b5b47" stroke-width="1"/>
    <path d="M-75,-18 Q-60,-35 -45,-18 Q-60,-5 -75,-18 Z" fill="#a68b5b" stroke="#8b7355" stroke-width="0.5"/>
    <path d="M-70,-16 Q-60,-30 -50,-16 Q-60,-8 -70,-16 Z" fill="#c4a574" stroke="#a68b5b" stroke-width="0.5"/>
    
    <!-- Feather barbs -->
    <line x1="-70" y1="-16" x2="-65" y2="-12" stroke="#8b7355" stroke-width="0.5"/>
    <line x1="-68" y1="-14" x2="-63" y2="-10" stroke="#8b7355" stroke-width="0.5"/>
    <line x1="-66" y1="-12" x2="-61" y2="-8" stroke="#8b7355" stroke-width="0.5"/>
    <line x1="-64" y1="-10" x2="-59" y2="-6" stroke="#8b7355" stroke-width="0.5"/>
    <line x1="-62" y1="-8" x2="-57" y2="-4" stroke="#8b7355" stroke-width="0.5"/>
    
    <!-- Shaft -->
    <line x1="-40" y1="-20" x2="20" y2="40" stroke="#8b7355" stroke-width="3" stroke-linecap="round"/>
    <line x1="-40" y1="-20" x2="20" y2="40" stroke="#a68b5b" stroke-width="2" stroke-linecap="round"/>
    
    <!-- Nib -->
    <path d="M20,40 L15,45 L25,45 Z" fill="#6b5b47"/>
    <path d="M20,40 L15,45 L25,45 Z" fill="#8b7355" opacity="0.7"/>
  </g>
  
  <!-- Additional texture elements -->
  <circle cx="100" cy="150" r="2" fill="#d4c4b0" opacity="0.3"/>
  <circle cx="700" cy="100" r="1.5" fill="#c4a574" opacity="0.4"/>
  <circle cx="200" cy="500" r="1" fill="#b8a082" opacity="0.5"/>
  <circle cx="600" cy="450" r="2.5" fill="#d4c4b0" opacity="0.2"/>
</svg>
